<svg aria-hidden="true" style="position: absolute; width: 0; height: 0; overflow: hidden;"
  version="1.1" xmlns="http://www.w3.org/2000/svg" xmlns:xlink="http://www.w3.org/1999/xlink">
  <defs>

    <!-- HOME -->
    <symbol id="home" viewBox="0 0 32 32">
      <path
        d="M16.612 2.214c-0.17-0.133-0.386-0.214-0.621-0.214s-0.452 0.080-0.624 0.215l0.002-0.002-14.37 11.206 1.243 1.572 1.757-1.37v12.379c0.002 1.104 0.896 1.998 2 2h20c1.104-0.002 1.998-0.896 2-2v-12.37l1.757 1.37 1.243-1.572zM18 26h-4v-8h4zM20 26v-8c-0.001-1.104-0.896-1.999-2-2h-4c-1.104 0.001-1.999 0.896-2 2v8h-6v-13.938l10-7.79 10 7.801v13.928z"></path>
    </symbol>

    <!-- BASKET -->
    <symbol id="basket" viewBox="0 0 32 32">
      <path
        d="M31.12 9.52c-0.64-0.72-1.52-1.2-2.48-1.2h-12.32c-0.4 0-0.8 0.32-0.8 0.8s0.4 0.8 0.8 0.8h12.32c0.48 0 0.96 0.24 1.28 0.56 0.32 0.4 0.48 0.88 0.32 1.36l-0.72 4h-8.8c-0.4 0-0.8 0.32-0.8 0.8s0.4 0.8 0.8 0.8h8.56l-0.72 3.84c-0.080 0.56-0.64 0.96-1.2 0.96h-15.36c-0.56 0-1.040-0.4-1.2-0.96l-3.12-17.36c-0.080-0.4-0.4-0.64-0.8-0.64h-6.16c-0.4 0-0.8 0.32-0.8 0.8s0.4 0.8 0.8 0.8h5.52l3.040 16.8c0.16 1.12 0.96 1.92 2 2.24-0.4 0.56-0.72 1.28-0.72 2.080 0 2 1.6 3.6 3.6 3.6s3.6-1.6 3.6-3.6c0-0.72-0.24-1.44-0.64-2h4.88c-0.4 0.56-0.64 1.28-0.64 2 0 2 1.6 3.6 3.6 3.6s3.6-1.6 3.6-3.6c0-0.8-0.24-1.52-0.64-2.080 1.040-0.24 1.92-1.12 2.16-2.24l1.76-9.44c0.16-0.96-0.080-1.92-0.72-2.72zM16.16 25.92c0 1.12-0.88 2-2 2s-2-0.88-2-2c0-1.12 0.88-2 2-2s2 0.88 2 2zM25.040 27.92c-1.12 0-2-0.88-2-2s0.88-2 2-2c1.12 0 2 0.88 2 2s-0.88 2-2 2z"></path>
    </symbol>

    <!-- CATALOG -->
    <symbol id="catalog" viewBox="0 0 48 32">
      <path
        d="M2.667 0c0.982 0 1.778 0.796 1.778 1.778s-0.796 1.778-1.778 1.778c-0.982 0-1.778-0.796-1.778-1.778s0.796-1.778 1.778-1.778z"></path>
      <path
        d="M13.333 0h32c0.982 0 1.778 0.796 1.778 1.778s-0.796 1.778-1.778 1.778h-32c-0.982 0-1.778-0.796-1.778-1.778s0.796-1.778 1.778-1.778z"></path>
      <path
        d="M2.667 14.222c0.982 0 1.778 0.796 1.778 1.778s-0.796 1.778-1.778 1.778c-0.982 0-1.778-0.796-1.778-1.778s0.796-1.778 1.778-1.778z"></path>
      <path
        d="M13.333 14.222h32c0.982 0 1.778 0.796 1.778 1.778s-0.796 1.778-1.778 1.778h-32c-0.982 0-1.778-0.796-1.778-1.778s0.796-1.778 1.778-1.778z"></path>
      <path
        d="M2.667 28.444c0.982 0 1.778 0.796 1.778 1.778s-0.796 1.778-1.778 1.778c-0.982 0-1.778-0.796-1.778-1.778s0.796-1.778 1.778-1.778z"></path>
      <path
        d="M13.333 28.444h32c0.982 0 1.778 0.796 1.778 1.778s-0.796 1.778-1.778 1.778h-32c-0.982 0-1.778-0.796-1.778-1.778s0.796-1.778 1.778-1.778z"></path>
    </symbol>


    <!-- PROFILE -->
    <symbol id="profile" viewBox="0 0 32 32">
      <path
        d="M16 16c3.866 0 7-3.134 7-7s-3.134-7-7-7c-3.866 0-7 3.134-7 7v0c0 3.866 3.134 7 7 7v0zM16 4c2.761 0 5 2.239 5 5s-2.239 5-5 5c-2.761 0-5-2.239-5-5v0c0-2.761 2.239-5 5-5v0z"></path>
      <path
        d="M17 18h-2c-6.075 0-11 4.925-11 11v0c0 0.552 0.448 1 1 1v0h22c0.552 0 1-0.448 1-1v0c0-6.075-4.925-11-11-11v0zM6.060 28c0.52-4.52 4.324-7.998 8.94-8h2c4.616 0.002 8.42 3.48 8.936 7.958l0.004 0.042z"></path>
    </symbol>
    <!-- HEART -->
    <symbol id="heart" viewBox="0 0 32 32">
      <path
        d="M29.415 4.545c-1.676-1.676-3.894-2.591-6.262-2.591s-4.593 0.923-6.268 2.598l-0.875 0.875-0.889-0.889c-1.676-1.676-3.908-2.605-6.275-2.605-2.361 0-4.586 0.923-6.255 2.591-1.676 1.676-2.598 3.901-2.591 6.268 0 2.368 0.929 4.586 2.605 6.262l12.74 12.74c0.176 0.176 0.414 0.271 0.644 0.271s0.468-0.088 0.644-0.265l12.767-12.72c1.676-1.676 2.598-3.901 2.598-6.268 0.007-2.368-0.909-4.593-2.585-6.268zM28.113 15.786l-12.123 12.075-12.096-12.096c-1.33-1.33-2.062-3.094-2.062-4.973s0.726-3.643 2.056-4.966c1.323-1.323 3.087-2.056 4.959-2.056 1.879 0 3.65 0.733 4.979 2.062l1.533 1.533c0.36 0.36 0.936 0.36 1.296 0l1.52-1.52c1.33-1.33 3.1-2.062 4.973-2.062s3.636 0.733 4.966 2.056c1.33 1.33 2.056 3.094 2.056 4.973 0.007 1.879-0.726 3.643-2.056 4.973z"></path>
    </symbol>

    <!-- SEARCH -->
    <symbol id="search" viewBox="0 0 32 32">
      <path
        d="M0 13.317c0 7.345 5.975 13.314 13.314 13.314 3.381 0 6.473-1.271 8.826-3.355l8.485 8.485c0.157 0.157 0.36 0.236 0.57 0.236s0.413-0.079 0.57-0.236c0.315-0.314 0.315-0.819 0-1.134l-8.491-8.485c2.084-2.352 3.355-5.438 3.355-8.826 0-7.345-5.975-13.314-13.314-13.314s-13.314 5.969-13.314 13.314zM25.022 13.317c0 6.454-5.255 11.708-11.708 11.708s-11.708-5.255-11.708-11.708 5.255-11.708 11.708-11.708 11.708 5.248 11.708 11.708z"></path>
    </symbol>
  </defs>
</svg>