<svg aria-hidden="true" style="position: absolute; width: 0; height: 0; overflow: hidden;"
  version="1.1" xmlns="http://www.w3.org/2000/svg" xmlns:xlink="http://www.w3.org/1999/xlink">
  <defs>
    <symbol id="search" viewBox="0 0 32 32">
      <path
        d="M0 13.317c0 7.345 5.975 13.314 13.314 13.314 3.381 0 6.473-1.271 8.826-3.355l8.485 8.485c0.157 0.157 0.36 0.236 0.57 0.236s0.413-0.079 0.57-0.236c0.315-0.314 0.315-0.819 0-1.134l-8.491-8.485c2.084-2.352 3.355-5.438 3.355-8.826 0-7.345-5.975-13.314-13.314-13.314s-13.314 5.969-13.314 13.314zM25.022 13.317c0 6.454-5.255 11.708-11.708 11.708s-11.708-5.255-11.708-11.708 5.255-11.708 11.708-11.708 11.708 5.248 11.708 11.708z"></path>
    </symbol>
    <symbol id="heart" viewBox="0 0 32 32">
      <path
        d="M29.415 4.545c-1.676-1.676-3.894-2.591-6.262-2.591s-4.593 0.923-6.268 2.598l-0.875 0.875-0.889-0.889c-1.676-1.676-3.908-2.605-6.275-2.605-2.361 0-4.586 0.923-6.255 2.591-1.676 1.676-2.598 3.901-2.591 6.268 0 2.368 0.929 4.586 2.605 6.262l12.74 12.74c0.176 0.176 0.414 0.271 0.644 0.271s0.468-0.088 0.644-0.265l12.767-12.72c1.676-1.676 2.598-3.901 2.598-6.268 0.007-2.368-0.909-4.593-2.585-6.268zM28.113 15.786l-12.123 12.075-12.096-12.096c-1.33-1.33-2.062-3.094-2.062-4.973s0.726-3.643 2.056-4.966c1.323-1.323 3.087-2.056 4.959-2.056 1.879 0 3.65 0.733 4.979 2.062l1.533 1.533c0.36 0.36 0.936 0.36 1.296 0l1.52-1.52c1.33-1.33 3.1-2.062 4.973-2.062s3.636 0.733 4.966 2.056c1.33 1.33 2.056 3.094 2.056 4.973 0.007 1.879-0.726 3.643-2.056 4.973z"></path>
    </symbol>
  </defs>
</svg>